# xmcd
#
# Track frame offsets: 
#        150
#        11199
#        20939
#        31584
#        41875
#        52151
#        61632
#        73509
#        84426
#        94244
#        105676
#        117529
#
# Disc length: 1711 seconds
#
# Revision: 2
# Processed by: cddbd v1.5.2PL0 Copyright (c) Steve Scherf et al.
# Submitted via: ExactAudioCopy v0.99pb4
#
DISCID=a306ad0c
DTITLE=Dolly Parton - Hello I'm Dolly
DYEAR=1967
DGENRE=Country
TTITLE0=Dumb Blonde
TTITLE1=Your Ole Handy Man
TTITLE2=I Don't Want To Throw Rice
TTITLE3=Put It Off Until Tomorrow
TTITLE4=I Wasted My Tears
TTITLE5=Something Fishy
TTITLE6=Fuel To The Flame
TTITLE7=The Giving And The Taking
TTITLE8=I'm In No Condition
TTITLE9=The Company You Keep
TTITLE10=I've Lived My Life
TTITLE11=The Little Things
EXTD=The World of Dolly Parton, Vol. 1\n1988 CBS Records, Inc.\n\n2LP 
EXTD=Originally Released 1967\nCD Edition Released 1988 and July 1, 19
EXTD=91\n\nAMG EXPERT REVIEW: This captures young Dolly Parton on Monu
EXTD=ment Records circa 1967, just before she hooked up with Porter Wa
EXTD=goner.  -- Dan Cooper\n\nAMAZON.COM CUSTOMER REVIEW\nDolly the hi
EXTD=llbilly singer part 1, October 16, 2004\nReviewer: P D Harris "Pe
EXTD=te the music and horse racing fan" (Leicester England]\nDolly off
EXTD=icially began her recording career on Monument - she made recordi
EXTD=ngs before that but they are mainly of curiosity value. Dolly was
EXTD=still maturing as a singer during her time on Monument but I lov
EXTD=e these recordings as they have little in common with her later m
EXTD=usic (even her early RCA music). Dolly's natural voice contains a
EXTD=lot of vibrato that she gradually eliminated over many years. On
EXTD=these recordings, you hear Dolly sounding exactly as she was mea
EXTD=nt to sound - pure hillbilly. \n\nThis album is a straight re-iss
EXTD=ue of the original album, Hello I'm Dolly, which yielded the coun
EXTD=try hits Dumb blonde (in which Dolly makes clear she's not dumb -
EXTD=she later admitted that she's not blonde either) and Something f
EXTD=ishy (a song about a fishing trip that isn't just about fishing) 
EXTD=\n\nApart from her own hits, Dolly gained recognition as a songwr
EXTD=iter. Skeeter Davis had a top ten country hit with Fuel to the fl
EXTD=ame. Bill Phillips had two top ten country hits with Dolly songs 
EXTD=(The company you keep, Put it off until tomorrow) but has since f
EXTD=aded into obscurity. Hank Williams Junior had a minor country hit
EXTD=with I'm in no condition. Other great tracks include Your ole ha
EXTD=ndy man (a protest against a lazy man expecting his woman to do e
EXTD=verything), I don't want to throw rice (warning off a rival woman
EXTD=) and The little things (reminding us that little things sometime
EXTD=s matter). \n\nIf you enjoy hillbilly music, you'll love this.\n\n
EXTD=AMAZON.COM CUSTOMER REVIEW\nThis CD actually contains her early a
EXTD=lbum "Hello, I'm Dolly", December 26, 2003\nReviewer: W. Schofiel
EXTD=d (Philadelphia, PA USA]\n"Hello, I'm Dolly" was recorded in 1967
EXTD=for the Monument label. This is the only available CD version of
EXTD=it that I have found. It is a great album.\n\nHalf.com N/A
EXTT0=
EXTT1=
EXTT2=
EXTT3=
EXTT4=
EXTT5=
EXTT6=
EXTT7=
EXTT8=
EXTT9=
EXTT10=
EXTT11=
PLAYORDER=
